<?xml version="1.0" standalone="no"?><!DOCTYPE svg PUBLIC "-//W3C//DTD SVG 1.1//EN" "http://www.w3.org/Graphics/SVG/1.1/DTD/svg11.dtd"><svg t="1611312504880" class="icon" viewBox="0 0 1024 1024" version="1.1" xmlns="http://www.w3.org/2000/svg" p-id="3247" xmlns:xlink="http://www.w3.org/1999/xlink" width="200" height="200"><defs><style type="text/css"></style></defs><path d="M501.291849 501.291849m-501.291849 0a501.291849 501.291849 0 1 0 1002.583698 0 501.291849 501.291849 0 1 0-1002.583698 0Z" fill="#FFFFFF" p-id="3248"></path><path d="M706.543012 768.034812l-194.556937-194.584786-194.529087 194.556936a43.445294 43.445294 0 0 1-61.436101 0 43.445294 43.445294 0 0 1 0-61.46395l194.556937-194.529087-194.556937-194.584786a43.445294 43.445294 0 0 1 0-61.436101 43.445294 43.445294 0 0 1 61.436101 0l194.584786 194.556936 194.529087-194.556936a43.445294 43.445294 0 0 1 61.436101 0 43.445294 43.445294 0 0 1 0 61.46395l-194.556936 194.556937 194.556936 194.556936a43.445294 43.445294 0 0 1 0 61.436101 43.445294 43.445294 0 0 1-61.46395 0z" fill="#202020" p-id="3249"></path></svg>