<?xml version="1.0" standalone="no"?><!DOCTYPE svg PUBLIC "-//W3C//DTD SVG 1.1//EN" "http://www.w3.org/Graphics/SVG/1.1/DTD/svg11.dtd"><svg t="1611368959901" class="icon" viewBox="0 0 1024 1024" version="1.1" xmlns="http://www.w3.org/2000/svg" p-id="6636" data-spm-anchor-id="a313x.7781069.0.i7" xmlns:xlink="http://www.w3.org/1999/xlink" width="200" height="200"><defs><style type="text/css"></style></defs><path d="M0 192m32 0l960 0q32 0 32 32l0 0q0 32-32 32l-960 0q-32 0-32-32l0 0q0-32 32-32Z" fill="#FB5A5A" p-id="6637"></path><path d="M192 256v640a64 64 0 0 0 64 64h512a64 64 0 0 0 64-64V256h64v640a128 128 0 0 1-128 128H256a128 128 0 0 1-128-128V256h64z" fill="#FB5A5A" p-id="6638" data-spm-anchor-id="a313x.7781069.0.i6" class=""></path><path d="M288 384m32 0l0 0q32 0 32 32l0 384q0 32-32 32l0 0q-32 0-32-32l0-384q0-32 32-32Z" fill="#FB5A5A" p-id="6639"></path><path d="M480 384m32 0l0 0q32 0 32 32l0 384q0 32-32 32l0 0q-32 0-32-32l0-384q0-32 32-32Z" fill="#FB5A5A" p-id="6640"></path><path d="M672 384m32 0l0 0q32 0 32 32l0 384q0 32-32 32l0 0q-32 0-32-32l0-384q0-32 32-32Z" fill="#FB5A5A" p-id="6641"></path><path d="M768 256V128a64 64 0 0 0-64-64H320a64 64 0 0 0-64 64v128H192V128a128 128 0 0 1 128-128h384a128 128 0 0 1 128 128v128h-64z" fill="#FB5A5A" p-id="6642"></path></svg>